<svg width="21" height="21" viewBox="0 0 21 21" fill="none" xmlns="http://www.w3.org/2000/svg">
<rect width="21" height="21" rx="10.5" fill="#785600"/>
<g clip-path="url(#clip0_4447_18730)">
<g style="mix-blend-mode:luminosity" clip-path="url(#clip1_4447_18730)">
<path d="M5.25 10.7116C5.25 9.12764 5.25 8.33568 5.74679 7.84362C6.24358 7.35156 7.04316 7.35156 8.64231 7.35156H9.20769C10.8068 7.35156 11.6064 7.35156 12.1032 7.84362C12.6 8.33568 12.6 9.12764 12.6 10.7116V12.3916C12.6 13.9755 12.6 14.7674 12.1032 15.2595C11.6064 15.7516 10.8068 15.7516 9.20769 15.7516H8.64231C7.04316 15.7516 6.24358 15.7516 5.74679 15.2595C5.25 14.7674 5.25 13.9755 5.25 12.3916V10.7116Z" fill="#FFE6A3" stroke="#FFBB0A" stroke-width="0.7875" stroke-linejoin="round"/>
<path d="M12.3565 12.6H12.8411C14.212 12.6 14.8975 12.6 15.3233 12.1694C15.7492 11.7389 15.7492 11.0459 15.7492 9.66V8.19C15.7492 6.80407 15.7492 6.11111 15.3233 5.68055C14.8975 5.25 14.212 5.25 12.8411 5.25H12.3565C10.9856 5.25 10.3001 5.25 9.87426 5.68055C9.50183 6.05706 9.45509 6.63424 9.44922 7.7" stroke="#FFBB0A" stroke-width="0.7875" stroke-linejoin="round"/>
<path d="M7.35156 10.5H8.92656M7.35156 13.125H9.97656" stroke="#FFBB0A" stroke-width="0.7875" stroke-linecap="round"/>
<path d="M9.71094 5.77344L11.8109 7.61094" stroke="#FFBB0A" stroke-width="0.7875" stroke-linejoin="round"/>
</g>
<g clip-path="url(#clip2_4447_18730)">
<path d="M5.77344 10.7116C5.77344 9.12764 5.77344 8.33568 6.27023 7.84362C6.76702 7.35156 7.5666 7.35156 9.16574 7.35156H9.73113C11.3303 7.35156 12.1299 7.35156 12.6266 7.84362C13.1234 8.33568 13.1234 9.12764 13.1234 10.7116V12.3916C13.1234 13.9755 13.1234 14.7674 12.6266 15.2595C12.1299 15.7516 11.3303 15.7516 9.73113 15.7516H9.16574C7.5666 15.7516 6.76702 15.7516 6.27023 15.2595C5.77344 14.7674 5.77344 13.9755 5.77344 12.3916V10.7116Z" fill="#FFE6A3" stroke="#FFBB0A" stroke-width="0.7875" stroke-linejoin="round"/>
<path d="M12.8799 12.6H13.3646C14.7355 12.6 15.4209 12.6 15.8468 12.1694C16.2727 11.7389 16.2727 11.0459 16.2727 9.66V8.19C16.2727 6.80407 16.2727 6.11111 15.8468 5.68055C15.4209 5.25 14.7355 5.25 13.3646 5.25H12.8799C11.509 5.25 10.8236 5.25 10.3977 5.68055C10.0253 6.05706 9.97852 6.63424 9.97266 7.7" stroke="#FFBB0A" stroke-width="0.7875" stroke-linejoin="round"/>
<path d="M7.875 10.5H9.45M7.875 13.125H10.5" stroke="#FFBB0A" stroke-width="0.7875" stroke-linecap="round"/>
<path d="M10.2344 5.77344L12.3344 7.61094" stroke="#FFBB0A" stroke-width="0.7875" stroke-linejoin="round"/>
</g>
</g>
<defs>
<clipPath id="clip0_4447_18730">
<rect width="12.6" height="12.6" fill="white" transform="translate(4.19922 4.19922)"/>
</clipPath>
<clipPath id="clip1_4447_18730">
<rect width="12.6" height="12.6" fill="white" transform="translate(4.19922 4.19922)"/>
</clipPath>
<clipPath id="clip2_4447_18730">
<rect width="12.6" height="12.6" fill="white" transform="translate(4.72266 4.19922)"/>
</clipPath>
</defs>
</svg>
